<svg width="33" height="123" viewBox="0 0 33 123" fill="none" xmlns="http://www.w3.org/2000/svg">
<circle cx="1.5" cy="1.5" r="1.5" fill="white"/>
<circle cx="16.5" cy="1.5" r="1.5" fill="white"/>
<circle cx="31.5" cy="1.5" r="1.5" fill="white"/>
<circle cx="1.5" cy="16.5" r="1.5" fill="white"/>
<circle cx="16.5" cy="16.5" r="1.5" fill="white"/>
<circle cx="31.5" cy="16.5" r="1.5" fill="white"/>
<circle cx="1.5" cy="31.5" r="1.5" fill="white"/>
<circle cx="16.5" cy="31.5" r="1.5" fill="white"/>
<circle cx="31.5" cy="31.5" r="1.5" fill="white"/>
<circle cx="1.5" cy="46.5" r="1.5" fill="white"/>
<circle cx="16.5" cy="46.5" r="1.5" fill="white"/>
<circle cx="31.5" cy="46.5" r="1.5" fill="white"/>
<circle cx="1.5" cy="61.5" r="1.5" fill="white"/>
<circle cx="16.5" cy="61.5" r="1.5" fill="white"/>
<circle cx="31.5" cy="61.5" r="1.5" fill="white"/>
<circle cx="1.5" cy="76.5" r="1.5" fill="white"/>
<circle cx="16.5" cy="76.5" r="1.5" fill="white"/>
<circle cx="31.5" cy="76.5" r="1.5" fill="white"/>
<circle cx="1.5" cy="91.5" r="1.5" fill="white"/>
<circle cx="16.5" cy="91.5" r="1.5" fill="white"/>
<circle cx="31.5" cy="91.5" r="1.5" fill="white"/>
<circle cx="1.5" cy="106.5" r="1.5" fill="white"/>
<circle cx="16.5" cy="106.5" r="1.5" fill="white"/>
<circle cx="31.5" cy="106.5" r="1.5" fill="white"/>
<circle cx="1.5" cy="121.5" r="1.5" fill="white"/>
<circle cx="16.5" cy="121.5" r="1.5" fill="white"/>
<circle cx="31.5" cy="121.5" r="1.5" fill="white"/>
</svg>
